<svg aria-hidden="true" style="position: absolute; width: 0; height: 0; overflow: hidden;" version="1.1" xmlns="http://www.w3.org/2000/svg" xmlns:xlink="http://www.w3.org/1999/xlink">
<defs>
<symbol id="icon-search" viewBox="0 0 32 32">
<path d="M6.4 14.4c0-4.418 3.582-8 8-8s8 3.582 8 8v0c0 4.418-3.582 8-8 8s-8-3.582-8-8v0zM14.4 3.2c-6.186 0-11.2 5.014-11.2 11.2s5.014 11.2 11.2 11.2c2.534 0 4.871-0.842 6.748-2.26l-0.028 0.020c0.048 0.063 0.096 0.119 0.149 0.171l4.8 4.8c0.287 0.278 0.68 0.449 1.112 0.449 0.884 0 1.6-0.716 1.6-1.6 0-0.432-0.171-0.824-0.45-1.112l-4.8-4.8c-0.052-0.052-0.108-0.101-0.167-0.146l-0.004-0.003c1.398-1.849 2.24-4.186 2.24-6.72 0-6.186-5.014-11.2-11.2-11.2v0z"></path>
</symbol>
<symbol id="icon-account" viewBox="0 0 32 32">
<path d="M20.852 17.017c1.911-1.462 3.148-3.759 3.148-6.35 0-4.418-3.582-8-8-8s-8 3.582-8 8c0 2.591 1.237 4.888 3.148 6.35-4.588 2.004-7.815 6.76-7.815 12.317h25.333c0-5.557-3.227-10.313-7.815-12.317zM10.667 10.667c0-2.941 2.393-5.333 5.333-5.333s5.333 2.393 5.333 5.333c0 2.941-2.393 5.333-5.333 5.333s-5.333-2.393-5.333-5.333zM16 18.667c4.651 0 8.571 3.405 9.683 8h-19.367c1.113-4.595 5.032-8 9.683-8z"></path>
</symbol>
<symbol id="icon-notification" viewBox="0 0 32 32">
<path d="M13.333 28h5.333c0 1.473-1.194 2.667-2.667 2.667s-2.667-1.194-2.667-2.667v0zM4.101 24.511c-0.064-0.151-0.102-0.326-0.102-0.51 0-0.368 0.149-0.702 0.391-0.943l2.276-2.276v-7.448c0.009-4.678 3.456-8.549 7.949-9.22l0.051-0.006v-1.44c0-0.736 0.597-1.333 1.333-1.333s1.333 0.597 1.333 1.333v0 1.44c4.544 0.678 7.991 4.548 8 9.226v7.449l2.276 2.276c0.241 0.241 0.39 0.575 0.39 0.943 0 0.736-0.597 1.333-1.333 1.333h-21.333c-0 0-0 0-0 0-0.552 0-1.026-0.336-1.228-0.814l-0.003-0.009zM8.552 22.667h14.896l-0.391-0.391c-0.241-0.241-0.391-0.575-0.391-0.943v-8c0-3.682-2.985-6.667-6.667-6.667s-6.667 2.985-6.667 6.667v0 8c-0 0.368-0.149 0.701-0.391 0.943v0z"></path>
</symbol>
<symbol id="icon-rectangle" viewBox="0 0 32 32">
<path d="M6.4 14.4c0-4.418 3.582-8 8-8s8 3.582 8 8v0c0 4.418-3.582 8-8 8s-8-3.582-8-8v0zM14.4 3.2c-6.186 0-11.2 5.014-11.2 11.2s5.014 11.2 11.2 11.2c2.534 0 4.871-0.842 6.748-2.26l-0.028 0.020c0.048 0.063 0.096 0.119 0.149 0.171l4.8 4.8c0.287 0.278 0.68 0.449 1.112 0.449 0.884 0 1.6-0.716 1.6-1.6 0-0.432-0.171-0.824-0.45-1.112l-4.8-4.8c-0.052-0.052-0.108-0.101-0.167-0.146l-0.004-0.003c1.398-1.849 2.24-4.186 2.24-6.72 0-6.186-5.014-11.2-11.2-11.2v0z"></path>
</symbol>
<symbol id="icon-play" viewBox="0 0 25 32">
<path fill="#fff" style="fill: var(--color1, #fff)" d="M23.631 18.477l-19.795 13.125c-1.68 1.113-3.836-0.235-3.836-2.478v-26.251c0-2.24 2.153-3.591 3.836-2.474l19.795 13.125c0.382 0.249 0.7 0.61 0.921 1.044s0.337 0.929 0.337 1.432-0.116 0.997-0.337 1.432c-0.221 0.435-0.539 0.795-0.921 1.044z"></path>
</symbol>
<symbol id="icon-burger" viewBox="0 0 32 32">
<path fill="#fff" style="fill: var(--color1, #fff)" d="M30.4 6.4c0 0.884-0.716 1.6-1.6 1.6v0h-25.6c-0.884 0-1.6-0.716-1.6-1.6s0.716-1.6 1.6-1.6v0h25.6c0.884 0 1.6 0.716 1.6 1.6v0zM30.4 16c0 0.884-0.716 1.6-1.6 1.6v0h-25.6c-0.884 0-1.6-0.716-1.6-1.6s0.716-1.6 1.6-1.6v0h25.6c0.884 0 1.6 0.716 1.6 1.6v0zM28.8 27.2c0.884 0 1.6-0.716 1.6-1.6s-0.716-1.6-1.6-1.6v0h-25.6c-0.884 0-1.6 0.716-1.6 1.6s0.716 1.6 1.6 1.6v0h25.6z"></path>
</symbol>
</defs>
</svg>
